<svg width="1600" height="980" viewBox="0 0 1600 980" fill="none" xmlns="http://www.w3.org/2000/svg">
  <defs>
    <filter id="shadow" x="-20%" y="-20%" width="140%" height="140%">
      <feDropShadow dx="0" dy="10" stdDeviation="14" flood-color="#0F172A" flood-opacity="0.12"/>
    </filter>
    <marker id="arrow" markerWidth="12" markerHeight="12" refX="10" refY="6" orient="auto" markerUnits="strokeWidth">
      <path d="M2 2 L10 6 L2 10 Z" fill="#475569"/>
    </marker>
    <style>
      .bg { fill: #F8FAFC; }
      .title { font-family: "Apple SD Gothic Neo", "Noto Sans CJK KR", "Pretendard", Arial, sans-serif; font-size: 42px; font-weight: 800; fill: #0F172A; }
      .subtitle { font-family: "Apple SD Gothic Neo", "Noto Sans CJK KR", "Pretendard", Arial, sans-serif; font-size: 19px; font-weight: 500; fill: #475569; }
      .layer-title { font-family: "Apple SD Gothic Neo", "Noto Sans CJK KR", "Pretendard", Arial, sans-serif; font-size: 22px; font-weight: 800; fill: #0F172A; }
      .layer-desc { font-family: "Apple SD Gothic Neo", "Noto Sans CJK KR", "Pretendard", Arial, sans-serif; font-size: 14px; font-weight: 500; fill: #64748B; }
      .component { font-family: "Apple SD Gothic Neo", "Noto Sans CJK KR", "Pretendard", Arial, sans-serif; font-size: 19px; font-weight: 800; fill: #111827; }
      .component-sub { font-family: "Apple SD Gothic Neo", "Noto Sans CJK KR", "Pretendard", Arial, sans-serif; font-size: 13px; font-weight: 600; fill: #64748B; }
      .small { font-family: "Apple SD Gothic Neo", "Noto Sans CJK KR", "Pretendard", Arial, sans-serif; font-size: 12px; font-weight: 700; fill: #475569; }
      .badge-text { font-family: "Apple SD Gothic Neo", "Noto Sans CJK KR", "Pretendard", Arial, sans-serif; font-size: 13px; font-weight: 800; fill: #FFFFFF; }
      .arrow-label { font-family: "Apple SD Gothic Neo", "Noto Sans CJK KR", "Pretendard", Arial, sans-serif; font-size: 13px; font-weight: 800; fill: #475569; }
    </style>
  </defs>

  <rect width="1600" height="980" rx="36" class="bg"/>
  <text x="72" y="82" class="title">System Architecture: Multi-View AI Backend Pipeline</text>
  <text x="72" y="118" class="subtitle">Unity 시뮬레이션 영상 입력부터 실시간 위험 판단, 로그 저장, 비동기 리포트, React 대시보드까지 연결한 E2E 구조</text>

  <!-- Layer containers -->
  <g filter="url(#shadow)">
    <rect x="58" y="172" width="260" height="650" rx="24" fill="#FFFFFF" stroke="#D7DEE8" stroke-width="2"/>
    <rect x="348" y="172" width="260" height="650" rx="24" fill="#FFFFFF" stroke="#D7DEE8" stroke-width="2"/>
    <rect x="638" y="172" width="360" height="650" rx="24" fill="#FFFFFF" stroke="#D7DEE8" stroke-width="2"/>
    <rect x="1028" y="172" width="260" height="650" rx="24" fill="#FFFFFF" stroke="#D7DEE8" stroke-width="2"/>
    <rect x="1318" y="172" width="224" height="650" rx="24" fill="#FFFFFF" stroke="#D7DEE8" stroke-width="2"/>
  </g>

  <!-- Layer titles -->
  <text x="88" y="222" class="layer-title">Simulation Layer</text>
  <text x="88" y="250" class="layer-desc">가상 공장 / 사각지대 환경</text>
  <text x="378" y="222" class="layer-title">Streaming Layer</text>
  <text x="378" y="250" class="layer-desc">영상 publish / RTSP 제공</text>
  <text x="668" y="222" class="layer-title">AI Backend Layer</text>
  <text x="668" y="250" class="layer-desc">검출 / 좌표 변환 / 위험 예측</text>
  <text x="1058" y="222" class="layer-title">Data &amp; Async Layer</text>
  <text x="1058" y="250" class="layer-desc">저장 / 알림 / 비동기 작업</text>
  <text x="1348" y="222" class="layer-title">Presentation</text>
  <text x="1348" y="250" class="layer-desc">관리자 화면 / 리포트</text>

  <!-- Simulation components -->
  <rect x="88" y="304" width="200" height="92" rx="18" fill="#EEF2FF" stroke="#C7D2FE" stroke-width="2"/>
  <circle cx="123" cy="350" r="23" fill="#111827"/>
  <text x="113" y="356" class="badge-text">U</text>
  <text x="160" y="340" class="component">Unity</text>
  <text x="160" y="365" class="component-sub">공장 사각지대 시뮬레이션</text>

  <rect x="88" y="424" width="200" height="88" rx="18" fill="#F1F5F9" stroke="#CBD5E1" stroke-width="2"/>
  <circle cx="123" cy="468" r="23" fill="#475569"/>
  <text x="112" y="474" class="badge-text">C#</text>
  <text x="160" y="458" class="component">C# Tools</text>
  <text x="160" y="483" class="component-sub">시나리오 / 녹화 자동화</text>

  <rect x="88" y="544" width="200" height="116" rx="18" fill="#ECFEFF" stroke="#A5F3FC" stroke-width="2"/>
  <circle cx="123" cy="588" r="23" fill="#0891B2"/>
  <text x="112" y="594" class="badge-text">C1</text>
  <circle cx="123" cy="624" r="23" fill="#0E7490"/>
  <text x="112" y="630" class="badge-text">C2</text>
  <text x="160" y="588" class="component">cam1 / cam2</text>
  <text x="160" y="613" class="component-sub">멀티뷰 영상 입력</text>
  <text x="160" y="638" class="component-sub">120 frame scenarios</text>

  <!-- Streaming components -->
  <rect x="378" y="320" width="200" height="92" rx="18" fill="#FFF7ED" stroke="#FED7AA" stroke-width="2"/>
  <circle cx="413" cy="366" r="23" fill="#EA580C"/>
  <text x="403" y="372" class="badge-text">FF</text>
  <text x="450" y="356" class="component">FFmpeg</text>
  <text x="450" y="381" class="component-sub">frame sequence publish</text>

  <rect x="378" y="456" width="200" height="92" rx="18" fill="#F0FDF4" stroke="#BBF7D0" stroke-width="2"/>
  <circle cx="413" cy="502" r="23" fill="#16A34A"/>
  <text x="402" y="508" class="badge-text">MX</text>
  <text x="450" y="492" class="component">MediaMTX</text>
  <text x="450" y="517" class="component-sub">RTSP server</text>

  <rect x="378" y="592" width="200" height="92" rx="18" fill="#F8FAFC" stroke="#CBD5E1" stroke-width="2"/>
  <circle cx="413" cy="638" r="23" fill="#334155"/>
  <text x="402" y="644" class="badge-text">RT</text>
  <text x="450" y="628" class="component">RTSP</text>
  <text x="450" y="653" class="component-sub">/cam1, /cam2 streams</text>

  <!-- AI Backend components -->
  <rect x="668" y="292" width="300" height="92" rx="18" fill="#EFF6FF" stroke="#BFDBFE" stroke-width="2"/>
  <circle cx="706" cy="338" r="23" fill="#2563EB"/>
  <text x="697" y="344" class="badge-text">FA</text>
  <text x="744" y="328" class="component">FastAPI / Python</text>
  <text x="744" y="353" class="component-sub">realtime camera pipeline</text>

  <rect x="668" y="412" width="140" height="116" rx="18" fill="#FEF2F2" stroke="#FECACA" stroke-width="2"/>
  <circle cx="706" cy="452" r="22" fill="#DC2626"/>
  <text x="697" y="458" class="badge-text">YP</text>
  <text x="732" y="444" class="component">YOLO</text>
  <text x="690" y="478" class="component-sub">YOLO11s-Pose</text>
  <text x="690" y="500" class="component-sub">worker keypoints</text>

  <rect x="828" y="412" width="140" height="116" rx="18" fill="#FFF7ED" stroke="#FED7AA" stroke-width="2"/>
  <circle cx="866" cy="452" r="22" fill="#C2410C"/>
  <text x="855" y="458" class="badge-text">CY</text>
  <text x="892" y="444" class="component">YOLO</text>
  <text x="850" y="478" class="component-sub">custom detect</text>
  <text x="850" y="500" class="component-sub">forklift / box</text>

  <rect x="668" y="556" width="300" height="92" rx="18" fill="#F5F3FF" stroke="#DDD6FE" stroke-width="2"/>
  <circle cx="706" cy="602" r="23" fill="#7C3AED"/>
  <text x="696" y="608" class="badge-text">CV</text>
  <text x="744" y="592" class="component">OpenCV / ArUco</text>
  <text x="744" y="617" class="component-sub">Homography, pixel → BEV world coord</text>

  <rect x="668" y="676" width="140" height="94" rx="18" fill="#F8FAFC" stroke="#CBD5E1" stroke-width="2"/>
  <circle cx="706" cy="716" r="22" fill="#0F172A"/>
  <text x="697" y="722" class="badge-text">V1</text>
  <text x="732" y="708" class="component">Fusion V1</text>
  <text x="732" y="736" class="component-sub">rule / TTC / FH</text>

  <rect x="828" y="676" width="140" height="94" rx="18" fill="#ECFDF5" stroke="#A7F3D0" stroke-width="2"/>
  <circle cx="866" cy="716" r="22" fill="#059669"/>
  <text x="857" y="722" class="badge-text">V2</text>
  <text x="892" y="708" class="component">Fusion V2</text>
  <text x="892" y="736" class="component-sub">GRU 24-frame</text>

  <!-- Data & Async components -->
  <rect x="1058" y="304" width="200" height="84" rx="18" fill="#EFF6FF" stroke="#BFDBFE" stroke-width="2"/>
  <circle cx="1094" cy="346" r="22" fill="#2563EB"/>
  <text x="1084" y="352" class="badge-text">PG</text>
  <text x="1130" y="338" class="component">PostgreSQL</text>
  <text x="1130" y="363" class="component-sub">incident log / index</text>

  <rect x="1058" y="416" width="200" height="84" rx="18" fill="#FEF2F2" stroke="#FECACA" stroke-width="2"/>
  <circle cx="1094" cy="458" r="22" fill="#DC2626"/>
  <text x="1083" y="464" class="badge-text">RD</text>
  <text x="1130" y="450" class="component">Redis</text>
  <text x="1130" y="475" class="component-sub">background report job</text>

  <rect x="1058" y="528" width="200" height="84" rx="18" fill="#F0FDF4" stroke="#BBF7D0" stroke-width="2"/>
  <circle cx="1094" cy="570" r="22" fill="#16A34A"/>
  <text x="1082" y="576" class="badge-text">MQ</text>
  <text x="1130" y="562" class="component">MQTT</text>
  <text x="1130" y="587" class="component-sub">Warning / Danger alert</text>

  <rect x="1058" y="640" width="200" height="84" rx="18" fill="#FFF7ED" stroke="#FED7AA" stroke-width="2"/>
  <circle cx="1094" cy="682" r="22" fill="#EA580C"/>
  <text x="1084" y="688" class="badge-text">LL</text>
  <text x="1130" y="674" class="component">Ollama</text>
  <text x="1130" y="699" class="component-sub">daily safety report</text>

  <!-- Presentation components -->
  <rect x="1348" y="342" width="164" height="92" rx="18" fill="#ECFEFF" stroke="#A5F3FC" stroke-width="2"/>
  <circle cx="1382" cy="388" r="22" fill="#0891B2"/>
  <text x="1372" y="394" class="badge-text">RE</text>
  <text x="1418" y="380" class="component">React</text>
  <text x="1418" y="405" class="component-sub">dashboard</text>

  <rect x="1348" y="476" width="164" height="92" rx="18" fill="#F5F3FF" stroke="#DDD6FE" stroke-width="2"/>
  <circle cx="1382" cy="522" r="22" fill="#7C3AED"/>
  <text x="1373" y="528" class="badge-text">VI</text>
  <text x="1418" y="514" class="component">Vite</text>
  <text x="1418" y="539" class="component-sub">frontend build</text>

  <rect x="1348" y="610" width="164" height="102" rx="18" fill="#F8FAFC" stroke="#CBD5E1" stroke-width="2"/>
  <circle cx="1382" cy="656" r="22" fill="#334155"/>
  <text x="1373" y="662" class="badge-text">UI</text>
  <text x="1418" y="648" class="component">Admin UI</text>
  <text x="1418" y="675" class="component-sub">worker count</text>
  <text x="1418" y="697" class="component-sub">snapshots / PDF</text>

  <!-- Inter-layer arrows -->
  <line x1="288" y1="602" x2="372" y2="602" stroke="#475569" stroke-width="3" marker-end="url(#arrow)"/>
  <text x="305" y="578" class="arrow-label">video frames</text>

  <line x1="578" y1="638" x2="662" y2="338" stroke="#475569" stroke-width="3" marker-end="url(#arrow)"/>
  <text x="588" y="510" class="arrow-label">RTSP input</text>

  <line x1="968" y1="722" x2="1052" y2="570" stroke="#475569" stroke-width="3" marker-end="url(#arrow)"/>
  <text x="984" y="642" class="arrow-label">risk event</text>

  <line x1="1258" y1="346" x2="1342" y2="388" stroke="#475569" stroke-width="3" marker-end="url(#arrow)"/>
  <text x="1270" y="342" class="arrow-label">API</text>

  <line x1="1258" y1="682" x2="1342" y2="656" stroke="#475569" stroke-width="3" marker-end="url(#arrow)"/>
  <text x="1268" y="705" class="arrow-label">report</text>

  <!-- Internal AI arrows -->
  <line x1="818" y1="384" x2="738" y2="410" stroke="#94A3B8" stroke-width="2" marker-end="url(#arrow)"/>
  <line x1="818" y1="384" x2="898" y2="410" stroke="#94A3B8" stroke-width="2" marker-end="url(#arrow)"/>
  <line x1="738" y1="528" x2="778" y2="554" stroke="#94A3B8" stroke-width="2" marker-end="url(#arrow)"/>
  <line x1="898" y1="528" x2="858" y2="554" stroke="#94A3B8" stroke-width="2" marker-end="url(#arrow)"/>
  <line x1="818" y1="648" x2="738" y2="674" stroke="#94A3B8" stroke-width="2" marker-end="url(#arrow)"/>
  <line x1="818" y1="648" x2="898" y2="674" stroke="#94A3B8" stroke-width="2" marker-end="url(#arrow)"/>

  <!-- Footer notes -->
  <rect x="72" y="870" width="1456" height="58" rx="18" fill="#E2E8F0"/>
  <text x="102" y="905" class="small">Architecture focus: 기술 컴포넌트와 책임 분리</text>
  <text x="520" y="905" class="small">V1: Rule-based risk engine</text>
  <text x="790" y="905" class="small">V2: GRU coordinate sequence risk model</text>
  <text x="1120" y="905" class="small">Output: DB log, MQTT alert, async report, dashboard</text>
</svg>
